<?xml version="1.0" encoding="utf-8"?>
<!-- Generator: Adobe Illustrator 21.1.0, SVG Export Plug-In . SVG Version: 6.00 Build 0)  -->
<svg version="1.1" id="Layer_1" xmlns="http://www.w3.org/2000/svg" xmlns:xlink="http://www.w3.org/1999/xlink" x="0px" y="0px"
	 viewBox="0 0 164 29" style="enable-background:new 0 0 164 29;" xml:space="preserve">
<style type="text/css">
	.st0{fill:#FFFFFF;}
</style>
<g>
	<path id="path-1" class="st0" d="M163.9,12.8c0,0.9-0.1,2.1-0.3,2.7c-0.7-0.1-1.5-0.1-2.4-0.1c-0.8,0-1.5,0.1-2.3,0.2v12.1h-3.1
		V13.5c1.3-0.5,3.6-0.8,5.3-0.8C162.2,12.7,163.2,12.7,163.9,12.8 M143,19h7c0-2.3-1.2-3.7-3.4-3.7C144.4,15.3,143.2,16.6,143,19
		 M153,21.6h-10c0.4,2.5,1.9,3.7,4.6,3.7c1.7,0,3.4-0.4,5-1.1c-0.1,0.8-0.3,1.9-0.5,2.8c-1.4,0.6-2.9,0.9-4.6,0.9
		c-5.2,0-7.7-2.9-7.7-7.7c0-4.2,2-7.5,6.9-7.5c4.5,0,6.4,2.9,6.4,6.5C153.2,20,153.1,20.8,153,21.6 M134.2,24.3v-8.7
		c-0.8-0.2-1.7-0.3-2.5-0.3c-3.1,0-4.6,1.9-4.6,5.1c0,2.9,1.2,4.9,3.9,4.9C132.4,25.4,133.4,25,134.2,24.3 M137.3,7.9v19.7h-2.9
		l-0.2-1.8c-0.8,1.3-2,2.1-4.1,2.1c-3.7,0-6.2-2.7-6.2-7.4c0-5,2.7-7.8,7.9-7.8c0.8,0,1.6,0.1,2.3,0.2V8.3
		C135.2,8,136.3,7.9,137.3,7.9 M121.5,18.1v9.5h-3.1v-8.9c0-2.2-0.7-3.3-3.9-3.3c-0.7,0-1.6,0.1-2.5,0.2v12h-3.1V13.5
		c2-0.5,4.2-0.8,5.7-0.8C119.8,12.7,121.5,14.7,121.5,18.1 M102.4,24.4v-8.9c-0.7-0.1-1.4-0.2-2.2-0.2c-3.2,0-4.7,2-4.7,5.1
		c0,2.9,1.2,4.9,3.9,4.9C100.6,25.4,101.6,25,102.4,24.4 M105.5,13.5v14.1h-2.9l-0.2-1.7c-0.8,1.2-2,2-4,2c-3.7,0-6.2-2.7-6.2-7.4
		c0-5,2.7-7.8,7.9-7.8C102.2,12.7,103.9,12.9,105.5,13.5 M88.8,25.3c0.9,0,1.8-0.2,2.4-0.4c-0.1,0.8-0.2,1.8-0.4,2.6
		c-0.9,0.3-1.8,0.5-2.6,0.5c-3,0-5-1.4-5-4.8V8.3c1-0.3,2.2-0.5,3.1-0.5v5.3h4.9c-0.1,1-0.1,1.8-0.3,2.7h-4.6v6.9
		C86.4,24.6,87.3,25.3,88.8,25.3 M80.2,18.1v9.5H77v-8.9c0-2.2-0.7-3.3-3.9-3.3c-0.7,0-1.6,0.1-2.5,0.2v12h-3.1V13.5
		c2-0.5,4.2-0.8,5.7-0.8C78.5,12.7,80.2,14.7,80.2,18.1 M61.1,24.4v-8.9c-0.7-0.1-1.4-0.2-2.2-0.2c-3.2,0-4.7,2-4.7,5.1
		c0,2.9,1.2,4.9,3.9,4.9C59.3,25.4,60.3,25,61.1,24.4 M64.2,13.5v14.1h-2.9l-0.2-1.7c-0.8,1.2-2,2-4,2c-3.7,0-6.2-2.7-6.2-7.4
		c0-5,2.7-7.8,7.9-7.8C60.9,12.7,62.6,12.9,64.2,13.5 M35.9,27c0.1-1.2,0.2-1.9,0.5-2.8c1.6,0.7,3.6,1.1,5.2,1.1
		c2.6,0,4.1-0.8,4.1-2.5c0-1.6-1.1-2.4-3.7-3.6l-1.4-0.6c-2.7-1.2-4.5-2.7-4.5-5.6c0-3.2,2.2-5.3,6.8-5.3c1.8,0,3.6,0.3,5.2,0.8
		c-0.1,1.1-0.3,2-0.6,2.8c-1.5-0.6-3.3-0.8-4.6-0.8c-2.5,0-3.6,1-3.6,2.5c0,1.5,1.1,2.3,3.1,3.2l1.5,0.6c3.6,1.5,5.1,3.1,5.1,5.9
		c0,3.2-2.5,5.5-7.3,5.5C39.4,28.1,37.5,27.7,35.9,27 M21.6,13.1c0-1-0.3-2.1-0.9-3L16,2c-0.4-0.6-0.6-1.3-0.7-2l-0.2,0.3
		c-1.2,2-1.2,4.5,0,6.5l3.8,6.5c1.2,2,1.2,4.5,0,6.5l-0.2,0.3c-0.1-0.7-0.4-1.3-0.7-2l-3.5-6l-2.2-3.8c-0.4-0.6-0.6-1.3-0.7-2
		l-0.2,0.3c-1.2,2-1.2,4.5,0,6.5l0,0l3.8,6.5c1.2,2,1.2,4.5,0,6.5l-0.2,0.3c-0.1-0.7-0.4-1.3-0.7-2l-4.7-8.1
		c-0.6-1.1-0.9-2.3-0.9-3.5C3.5,14.4,0,17.2,0,20.4c0,4.5,6.8,8.1,15.1,8.1c8.3,0,15.1-3.6,15.1-8.1C30.2,17.2,26.7,14.4,21.6,13.1"
		/>
</g>
<title>Mask@1x</title>
<desc>Created with Sketch.</desc>
<g id="Page-1">
	<g id="Mask">
		<path id="path-1_1_" class="st0" d="M163.9,12.8c0,0.9-0.1,2.1-0.3,2.7c-0.7-0.1-1.5-0.1-2.4-0.1c-0.8,0-1.5,0.1-2.3,0.2v12.1
			h-3.1V13.5c1.3-0.5,3.6-0.8,5.3-0.8C162.2,12.7,163.2,12.7,163.9,12.8 M143,19h7c0-2.3-1.2-3.7-3.4-3.7
			C144.4,15.3,143.2,16.6,143,19 M153,21.6h-10c0.4,2.5,1.9,3.7,4.6,3.7c1.7,0,3.4-0.4,5-1.1c-0.1,0.8-0.3,1.9-0.5,2.8
			c-1.4,0.6-2.9,0.9-4.6,0.9c-5.2,0-7.7-2.9-7.7-7.7c0-4.2,2-7.5,6.9-7.5c4.5,0,6.4,2.9,6.4,6.5C153.2,20,153.1,20.8,153,21.6
			 M134.2,24.3v-8.7c-0.8-0.2-1.7-0.3-2.5-0.3c-3.1,0-4.6,1.9-4.6,5.1c0,2.9,1.2,4.9,3.9,4.9C132.4,25.4,133.4,25,134.2,24.3
			 M137.3,7.9v19.7h-2.9l-0.2-1.8c-0.8,1.3-2,2.1-4.1,2.1c-3.7,0-6.2-2.7-6.2-7.4c0-5,2.7-7.8,7.9-7.8c0.8,0,1.6,0.1,2.3,0.2V8.3
			C135.2,8,136.3,7.9,137.3,7.9 M121.5,18.1v9.5h-3.1v-8.9c0-2.2-0.7-3.3-3.9-3.3c-0.7,0-1.6,0.1-2.5,0.2v12h-3.1V13.5
			c2-0.5,4.2-0.8,5.7-0.8C119.8,12.7,121.5,14.7,121.5,18.1 M102.4,24.4v-8.9c-0.7-0.1-1.4-0.2-2.2-0.2c-3.2,0-4.7,2-4.7,5.1
			c0,2.9,1.2,4.9,3.9,4.9C100.6,25.4,101.6,25,102.4,24.4 M105.5,13.5v14.1h-2.9l-0.2-1.7c-0.8,1.2-2,2-4,2c-3.7,0-6.2-2.7-6.2-7.4
			c0-5,2.7-7.8,7.9-7.8C102.2,12.7,103.9,12.9,105.5,13.5 M88.8,25.3c0.9,0,1.8-0.2,2.4-0.4c-0.1,0.8-0.2,1.8-0.4,2.6
			c-0.9,0.3-1.8,0.5-2.6,0.5c-3,0-5-1.4-5-4.8V8.3c1-0.3,2.2-0.5,3.1-0.5v5.3h4.9c-0.1,1-0.1,1.8-0.3,2.7h-4.6v6.9
			C86.4,24.6,87.3,25.3,88.8,25.3 M80.2,18.1v9.5H77v-8.9c0-2.2-0.7-3.3-3.9-3.3c-0.7,0-1.6,0.1-2.5,0.2v12h-3.1V13.5
			c2-0.5,4.2-0.8,5.7-0.8C78.5,12.7,80.2,14.7,80.2,18.1 M61.1,24.4v-8.9c-0.7-0.1-1.4-0.2-2.2-0.2c-3.2,0-4.7,2-4.7,5.1
			c0,2.9,1.2,4.9,3.9,4.9C59.3,25.4,60.3,25,61.1,24.4 M64.2,13.5v14.1h-2.9l-0.2-1.7c-0.8,1.2-2,2-4,2c-3.7,0-6.2-2.7-6.2-7.4
			c0-5,2.7-7.8,7.9-7.8C60.9,12.7,62.6,12.9,64.2,13.5 M35.9,27c0.1-1.2,0.2-1.9,0.5-2.8c1.6,0.7,3.6,1.1,5.2,1.1
			c2.6,0,4.1-0.8,4.1-2.5c0-1.6-1.1-2.4-3.7-3.6l-1.4-0.6c-2.7-1.2-4.5-2.7-4.5-5.6c0-3.2,2.2-5.3,6.8-5.3c1.8,0,3.6,0.3,5.2,0.8
			c-0.1,1.1-0.3,2-0.6,2.8c-1.5-0.6-3.3-0.8-4.6-0.8c-2.5,0-3.6,1-3.6,2.5c0,1.5,1.1,2.3,3.1,3.2l1.5,0.6c3.6,1.5,5.1,3.1,5.1,5.9
			c0,3.2-2.5,5.5-7.3,5.5C39.4,28.1,37.5,27.7,35.9,27 M21.6,13.1c0-1-0.3-2.1-0.9-3L16,2c-0.4-0.6-0.6-1.3-0.7-2l-0.2,0.3
			c-1.2,2-1.2,4.5,0,6.5l3.8,6.5c1.2,2,1.2,4.5,0,6.5l-0.2,0.3c-0.1-0.7-0.4-1.3-0.7-2l-3.5-6l-2.2-3.8c-0.4-0.6-0.6-1.3-0.7-2
			l-0.2,0.3c-1.2,2-1.2,4.5,0,6.5l0,0l3.8,6.5c1.2,2,1.2,4.5,0,6.5l-0.2,0.3c-0.1-0.7-0.4-1.3-0.7-2l-4.7-8.1
			c-0.6-1.1-0.9-2.3-0.9-3.5C3.5,14.4,0,17.2,0,20.4c0,4.5,6.8,8.1,15.1,8.1c8.3,0,15.1-3.6,15.1-8.1C30.2,17.2,26.7,14.4,21.6,13.1
			"/>
	</g>
</g>
</svg>
